<svg version="1.2" xmlns="http://www.w3.org/2000/svg" viewBox="0 0 250 250" width="250" height="250"><defs><linearGradient id="P" gradientUnits="userSpaceOnUse"/><linearGradient id="g1" x2="1" href="#P" gradientTransform="matrix(250,0,0,250,0,125)"><stop stop-color="#4f8cff"/><stop offset="1" stop-color="#7c5cff"/></linearGradient></defs><style>.a{fill:url(#g1)}.b{fill:#fff}</style><path fill-rule="evenodd" class="a" d="m70 0h110c38.7 0 70 31.3 70 70v110c0 38.7-31.3 70-70 70h-110c-38.7 0-70-31.3-70-70v-110c0-38.7 31.3-70 70-70z"/><path class="b" d="m147.6 58.3l-0.9 5.7h-15.3l0.8-5.7zm-1.3 9.9l-0.8 5.5h-4.6l0.8-5.5zm-14.1-9.9l-0.9 5.7h-18.3l1.1-5.7zm9.5 9.9l-0.9 5.5h-29.7l0.9-5.5zm2.5 9.7l-0.9 5.7h-30.7l0.8-5.7zm23.4 19.8l-0.8 5.5h-43.4l0.8-5.5zm1.9-9.9l-0.8 5.7h-80.5l0.8-5.7zm-56-9.9l-0.8 5.7h-4.7l0.9-5.7zm53.1 29.5l-0.9 5.7h-53.9l0.8-5.7zm-42.3-9.7l-0.8 5.5h-41.1l0.8-5.5zm13.9 19.6l-0.8 5.7h-38.4l0.9-5.7zm-49.1-29.5l-0.8 5.7h-4.5l0.9-5.7zm23.6 19.6l-0.9 5.7h-29.2l0.8-5.7zm24.2 19.8l-1 5.5h-38.8l0.9-5.5zm-1.7 9.7l-0.9 5.7h-22.9l1-5.7zm22.1 39.4l-0.8 5.6h-17.5l0.9-5.6zm-44.9-39.4l-1.1 5.7h-15.8l0.9-5.7zm21.7 9.9l-0.9 5.7h-39.4l1.1-5.7zm24.6 19.6l-0.8 5.6h-63.4l0.8-5.6zm-26.7-9.7l-0.9 5.4h-38.5l0.8-5.4zm23.6 29.5l-0.8 5.4h-50.8l0.9-5.4zm-15.8-9.9l-0.9 5.6h-44.8l1-5.6zm-44.4-9.9l-0.9 5.6h-2.1l0.9-5.6z"/></svg>
